<?xml version="1.0" encoding="iso-8859-1"?>
<!-- Generator: Adobe Illustrator 19.0.0, SVG Export Plug-In . SVG Version: 6.00 Build 0)  -->
<svg version="1.1" id="Capa_1" xmlns="http://www.w3.org/2000/svg" xmlns:xlink="http://www.w3.org/1999/xlink" x="0px" y="0px"
	 viewBox="0 0 480 480" style="enable-background:new 0 0 480 480;" xml:space="preserve">
<g>
	<g>
		<path d="M264.128,140.184l-0.256,16c30.936,0.496,60.36,1.936,87.464,4.256l1.376-15.936
			C325.232,142.144,295.432,140.688,264.128,140.184z"/>
	</g>
</g>
<g>
	<g>
		<path d="M215.88,140.184c-26.12,0.416-51.424,1.512-75.2,3.256l1.176,15.952c23.456-1.712,48.464-2.8,74.28-3.208L215.88,140.184z
			"/>
	</g>
</g>
<g>
	<g>
		<path d="M401.288,150.032l-2.344,15.824c50.464,7.48,62.224,15.848,64.632,18.232C454.024,195.8,371.456,212,240,212
			S25.976,195.8,16.424,184.088c2.512-2.488,15.112-11.44,70.68-19.096l-2.192-15.84C18.68,158.272,3.272,169.976,0.528,180H0v144h8
			c14.945-0.355,29.816,2.213,43.776,7.56c15.644,5.95,32.291,8.816,49.024,8.44c16.727,0.371,33.369-2.495,49.008-8.44
			c13.965-5.349,28.842-7.917,43.792-7.56c5.672,0,10.568,0.256,14.936,0.688L215.52,444H184v16h112v-16h-31.448l6.976-104.632
			c4.432,0.392,9.28,0.632,14.808,0.632c16.732,0.371,33.379-2.494,49.024-8.44c13.981-5.352,28.874-7.92,43.84-7.56
			c14.956-0.356,29.837,2.212,43.808,7.56c15.635,5.941,32.27,8.806,48.992,8.44c4.418,0,8-3.582,8-8V184
			C480,173.6,471.056,160.368,401.288,150.032z M248.512,444h-16.968l-6.848-116.432c4.512,1.192,8.544,2.576,12.648,4
			c5.987,2.173,12.1,3.984,18.304,5.424L248.512,444z M464,323.816c-12.258-0.489-24.354-2.981-35.808-7.376
			c-15.635-5.942-32.27-8.808-48.992-8.44c-16.733-0.373-33.379,2.493-49.024,8.44c-13.982,5.351-28.874,7.919-43.84,7.56
			c-14.945,0.355-29.816-2.213-43.776-7.56c-15.624-5.942-32.249-8.808-48.96-8.44c-16.727-0.371-33.369,2.495-49.008,8.44
			c-13.965,5.349-28.842,7.917-43.792,7.56c-14.945,0.356-29.816-2.212-43.776-7.56c-13.125-4.999-26.987-7.792-41.024-8.264
			V201.792C68.312,227.632,231.776,228,240,228s171.688-0.368,224-26.208V323.816z"/>
	</g>
</g>
<g>
	<g>
		<rect x="176" y="20" width="16" height="16"/>
	</g>
</g>
<g>
	<g>
		<rect x="232" y="20" width="16" height="16"/>
	</g>
</g>
<g>
	<g>
		<rect x="288" y="20" width="16" height="16"/>
	</g>
</g>
<g>
	<g>
		<path d="M288,52v48c0,4.418-3.582,8-8,8h-32V52h-16v56h-32c-4.418,0-8-3.582-8-8V52h-16v48c0,13.255,10.745,24,24,24h32v48h-48v16
			h112v-16h-48v-48h32c13.255,0,24-10.745,24-24V52H288z"/>
	</g>
</g>
<g>
	<g>
		<path d="M384,92v8h-16v-8h-16v32c0.042,10.134,6.445,19.15,16,22.528V172h-8v16h32v-16h-8v-25.472
			c9.555-3.378,15.958-12.394,16-22.528V92H384z M384,124c0,4.418-3.582,8-8,8s-8-3.582-8-8v-8h16V124z"/>
	</g>
</g>
<g>
	<g>
		<path d="M120,92v8h-16v-8H88v32c0.042,10.134,6.445,19.15,16,22.528V172h-8v16h32v-16h-8v-25.472
			c9.555-3.378,15.958-12.394,16-22.528V92H120z M120,124c0,4.418-3.582,8-8,8s-8-3.582-8-8v-8h16V124z"/>
	</g>
</g>
<g>
	<g>
		<rect x="184" y="244" width="16" height="48"/>
	</g>
</g>
<g>
	<g>
		<rect x="280" y="244" width="16" height="64"/>
	</g>
</g>
<g>
	<g>
		<rect x="376" y="236" width="16" height="56"/>
	</g>
</g>
<g>
	<g>
		<rect x="96" y="244" width="16" height="64"/>
	</g>
</g>
<g>
</g>
<g>
</g>
<g>
</g>
<g>
</g>
<g>
</g>
<g>
</g>
<g>
</g>
<g>
</g>
<g>
</g>
<g>
</g>
<g>
</g>
<g>
</g>
<g>
</g>
<g>
</g>
<g>
</g>
</svg>
